<svg aria-hidden="true" style="position: absolute; width: 0; height: 0; overflow: hidden;" version="1.1" xmlns="http://www.w3.org/2000/svg" xmlns:xlink="http://www.w3.org/1999/xlink">
<defs>
<symbol id="icon-facebook" viewBox="0 0 32 32">
<path d="M17.864 27.996v-10.928h3.686l0.548-4.279h-4.233v-2.726c0-1.235 0.344-2.080 2.116-2.080h2.246v-3.815c-0.952-0.108-2.056-0.17-3.174-0.17-0.041 0-0.081 0-0.122 0l0.006-0c-3.258 0-5.496 1.99-5.496 5.641v3.14h-3.662v4.279h3.671v10.936h4.416z"></path>
</symbol>
<symbol id="icon-instagram" viewBox="0 0 32 32">
<path d="M15.998 9.836c-3.405 0-6.166 2.761-6.166 6.166s2.761 6.166 6.166 6.166v0c3.405 0 6.166-2.761 6.166-6.166s-2.761-6.166-6.166-6.166v0zM15.998 20.004c-0.025 0.001-0.055 0.001-0.084 0.001-2.212 0-4.005-1.793-4.005-4.005s1.793-4.005 4.005-4.005c0.030 0 0.059 0 0.089 0.001l-0.004-0c2.176 0.047 3.921 1.822 3.921 4.004s-1.745 3.957-3.917 4.004l-0.004 0zM22.408 11.047c0.794 0 1.438-0.644 1.438-1.438s-0.644-1.438-1.438-1.438v0c-0.794 0-1.438 0.644-1.438 1.438s0.644 1.438 1.438 1.438v0z"></path>
<path d="M27.378 8.148c-0.638-1.617-1.894-2.872-3.47-3.495l-0.042-0.014c-0.863-0.334-1.862-0.538-2.905-0.56l-0.009-0c-1.284-0.056-1.691-0.071-4.947-0.071s-3.674 0-4.947 0.071c-1.052 0.021-2.049 0.225-2.972 0.58l0.060-0.020c-1.617 0.636-2.874 1.892-3.497 3.468l-0.014 0.042c-0.334 0.864-0.537 1.863-0.558 2.907l-0 0.009c-0.057 1.282-0.075 1.689-0.075 4.946s0 3.671 0.075 4.947c0.022 1.053 0.225 2.052 0.579 2.976l-0.020-0.060c0.638 1.616 1.894 2.872 3.47 3.496l0.042 0.015c0.86 0.347 1.857 0.564 2.899 0.6l0.015 0c1.284 0.056 1.691 0.073 4.947 0.073s3.674 0 4.947-0.073c1.052-0.022 2.051-0.225 2.975-0.579l-0.060 0.020c1.616-0.639 2.872-1.895 3.497-3.469l0.015-0.042c0.334-0.864 0.537-1.862 0.558-2.906l0-0.009c0.057-1.283 0.075-1.689 0.075-4.947s0-3.671-0.075-4.947c-0.017-1.066-0.222-2.080-0.582-3.016l0.020 0.060zM25.753 20.857c-0.009 0.81-0.16 1.583-0.43 2.297l0.015-0.046c-0.414 1.052-1.231 1.868-2.256 2.272l-0.027 0.009c-0.661 0.253-1.424 0.404-2.222 0.414l-0.004 0c-1.267 0.059-1.624 0.074-4.872 0.074-3.251 0-3.582 0-4.874-0.074-0.802-0.010-1.565-0.161-2.27-0.429l0.045 0.015c-1.056-0.411-1.876-1.228-2.282-2.255l-0.009-0.027c-0.25-0.66-0.401-1.423-0.415-2.219l-0-0.006c-0.057-1.267-0.071-1.624-0.071-4.872 0-3.25 0-3.582 0.071-4.874 0.009-0.768 0.148-1.529 0.415-2.249 0.415-1.054 1.236-1.871 2.264-2.273l0.027-0.009c0.66-0.252 1.424-0.403 2.221-0.415l0.005-0c1.268-0.057 1.623-0.073 4.873-0.073s3.582 0 4.872 0.073c0.802 0.010 1.566 0.161 2.272 0.43l-0.045-0.015c1.052 0.414 1.869 1.231 2.273 2.256l0.009 0.027c0.262 0.713 0.403 1.466 0.414 2.225 0.058 1.268 0.072 1.624 0.072 4.874 0 3.248 0 3.597-0.057 4.872h-0.015v-0.002z"></path>
</symbol>
<symbol id="icon-twitter" viewBox="0 0 32 32">
<path d="M26.178 10.663c0.017 0.233 0.017 0.465 0.017 0.697 0 7.1-5.404 15.282-15.28 15.282-3.043 0-5.869-0.882-8.248-2.412 0.432 0.050 0.848 0.067 1.298 0.067 2.417 0.006 4.765-0.803 6.668-2.294-2.34-0.044-4.312-1.575-5.011-3.686l-0.011-0.038c0.332 0.050 0.665 0.083 1.014 0.083 0.482 0 0.965-0.067 1.414-0.182-2.473-0.513-4.305-2.674-4.305-5.262 0-0.003 0-0.006 0-0.009v0-0.067c0.716 0.399 1.547 0.649 2.427 0.682-1.452-0.975-2.396-2.611-2.396-4.468 0-0.002 0-0.003 0-0.005v0c0-0.997 0.266-1.912 0.731-2.709 2.662 3.256 6.599 5.385 11.038 5.618l0.038 0.002c-0.082-0.369-0.13-0.793-0.133-1.228v-0.002c0-0.001 0-0.002 0-0.003 0-2.965 2.403-5.368 5.368-5.368 0.001 0 0.001 0 0.002 0h-0c1.547 0 2.943 0.648 3.924 1.696 1.285-0.254 2.427-0.704 3.456-1.324l-0.048 0.027c-0.416 1.263-1.251 2.292-2.338 2.947l-0.024 0.013c1.146-0.134 2.191-0.427 3.16-0.859l-0.068 0.027c-0.749 1.082-1.64 2.001-2.661 2.756l-0.031 0.022z"></path>
</symbol>
<symbol id="icon-folder" viewBox="0 0 32 32">
<path  d="M18.667 17.333h-1.333v-1.333c0-0.736-0.597-1.333-1.333-1.333s-1.333 0.597-1.333 1.333v0 1.333h-1.333c-0.736 0-1.333 0.597-1.333 1.333s0.597 1.333 1.333 1.333v0h1.333v1.333c0 0.736 0.597 1.333 1.333 1.333s1.333-0.597 1.333-1.333v0-1.333h1.333c0.736 0 1.333-0.597 1.333-1.333s-0.597-1.333-1.333-1.333v0z"></path>
<path  d="M26 9.399h-9.333l-3.506-4.24c-0.245-0.3-0.614-0.49-1.027-0.493h-6.134c-0.012-0-0.027-0-0.041-0-1.8 0-3.263 1.444-3.292 3.237l-0 0.003v16.187c0.030 1.796 1.493 3.241 3.293 3.241 0.014 0 0.028-0 0.042-0l-0.002 0h20c0.012 0 0.026 0 0.040 0 1.8 0 3.264-1.445 3.293-3.238l0-0.003v-11.453c-0.030-1.796-1.493-3.241-3.293-3.241-0.014 0-0.028 0-0.042 0l0.002-0zM26.667 24.066c-0.020 0.322-0.286 0.576-0.611 0.576-0.020 0-0.039-0.001-0.058-0.003l0.002 0h-20c-0.016 0.002-0.035 0.002-0.054 0.002-0.326 0-0.592-0.254-0.612-0.575l-0-0.002v-16.16c0.021-0.322 0.287-0.575 0.612-0.575 0.019 0 0.038 0.001 0.057 0.003l-0.002-0h5.506l3.467 4.24c0.245 0.3 0.613 0.491 1.027 0.494h10c0.016-0.002 0.035-0.002 0.054-0.002 0.326 0 0.592 0.253 0.613 0.573l0 0.002v11.427z"></path>
</symbol>
<symbol id="icon-like" viewBox="0 0 32 32">
<path  d="M22.666 6c-2.8 0-5.266 1.4-6.666 3.6-1.4-2.2-3.866-3.6-6.666-3.6-4.4 0-8 3.6-8 8 0 7.934 14.666 16 14.666 16s14.666-8 14.666-16c0-4.4-3.6-8-8-8z"></path>
</symbol>
<symbol id="icon-orange-logo" viewBox="0 0 118 32">
<path d="M6.737 0h18.526c3.721 0 6.737 3.016 6.737 6.737v18.526c0 3.721-3.016 6.737-6.737 6.737h-18.526c-3.721 0-6.737-3.016-6.737-6.737v-18.526c0-3.721 3.016-6.737 6.737-6.737z"></path>
<path d="M16.813 10.472c-0.28 0-0.552 0.034-0.813 0.099 0.175-1.539 0.78-2.911 1.692-4.022l-0.011 0.014c3.641 0.449 6.431 3.523 6.431 7.249 0 0 0 0 0 0.001v-0 5.327c-0.132 0.008-0.287 0.013-0.442 0.013-2.882 0-5.396-1.58-6.721-3.921l-0.020-0.038h3.224v-1.381c-0-1.844-1.495-3.339-3.34-3.34h-0z"></path>
<path d="M7.795 14.274c0-4.484 3.636-8.12 8.12-8.12 0.184 0 0.367 0.006 0.547 0.018l-0.025-0.001c-1.366 1.504-2.203 3.511-2.203 5.713 0 0.176 0.005 0.351 0.016 0.525l-0.001-0.024c-0.525 0.463-0.854 1.137-0.854 1.888 0 0.001 0 0.002 0 0.003v-0 0.56h1.36c1.198 3.267 4.337 5.6 8.020 5.6 0.429 0 0.849-0.031 1.261-0.093v3.453h-5.6v-3.36h-5.041v3.36h-5.6v-9.521z"></path>
<path d="M42.717 17.568c0-1.037 0.204-1.958 0.611-2.76 0.42-0.803 0.982-1.421 1.686-1.853 0.716-0.432 1.513-0.648 2.39-0.648 0.766 0 1.432 0.154 2.001 0.463 0.581 0.309 1.044 0.698 1.389 1.167v-1.464h2.612v10.264h-2.612v-1.501c-0.333 0.482-0.797 0.883-1.389 1.204-0.581 0.309-1.254 0.463-2.019 0.463-0.012 0-0.026 0-0.040 0-0.864 0-1.67-0.248-2.35-0.678l0.018 0.011c-0.704-0.445-1.266-1.069-1.686-1.871-0.408-0.815-0.611-1.747-0.611-2.797zM50.794 17.605c0-0.63-0.124-1.167-0.371-1.612-0.231-0.439-0.572-0.792-0.988-1.031l-0.012-0.007c-0.384-0.233-0.848-0.371-1.344-0.371-0.003 0-0.006 0-0.009 0h0c-0.482 0-0.926 0.118-1.334 0.352s-0.741 0.581-1 1.037c-0.247 0.445-0.371 0.976-0.371 1.593s0.124 1.161 0.371 1.63c0.259 0.457 0.593 0.808 1 1.056 0.42 0.247 0.865 0.371 1.334 0.371 0.004 0 0.008 0 0.012 0 0.493 0 0.955-0.131 1.354-0.359l-0.013 0.007c0.423-0.252 0.762-0.604 0.993-1.024l0.007-0.014c0.247-0.457 0.371-1 0.371-1.63zM61.627 12.325c1.223 0 2.211 0.389 2.964 1.167 0.754 0.766 1.13 1.84 1.13 3.224v6.021h-2.594v-5.669c0-0.815-0.204-1.439-0.611-1.871-0.408-0.445-0.963-0.667-1.667-0.667-0.716 0-1.284 0.222-1.704 0.667-0.408 0.432-0.611 1.056-0.611 1.871v5.669h-2.594v-10.264h2.594v1.278c0.345-0.445 0.784-0.791 1.315-1.037 0.509-0.246 1.107-0.389 1.738-0.389 0.014 0 0.028 0 0.042 0l-0.002-0zM71.208 14.604v4.965c0 0.345 0.080 0.599 0.241 0.76 0.173 0.148 0.457 0.222 0.852 0.222h1.204v2.186h-1.63c-2.186 0-3.279-1.062-3.279-3.187v-4.947h-1.223v-2.131h1.223v-2.538h2.612v2.538h2.297v2.131h-2.296zM79.928 22.904c-0.988 0-1.877-0.216-2.668-0.648-0.789-0.447-1.424-1.082-1.859-1.847l-0.013-0.024c-0.445-0.803-0.667-1.729-0.667-2.779s0.229-1.976 0.685-2.779c0.457-0.787 1.105-1.417 1.883-1.84l0.025-0.013c0.803-0.445 1.699-0.667 2.686-0.667s1.884 0.222 2.686 0.667c0.8 0.432 1.443 1.064 1.878 1.829l0.012 0.023c0.47 0.803 0.704 1.729 0.704 2.779s-0.241 1.976-0.723 2.779c-0.463 0.793-1.118 1.429-1.901 1.858l-0.026 0.013c-0.803 0.432-1.704 0.648-2.705 0.648zM79.928 20.643c0.47 0 0.908-0.111 1.315-0.333 0.42-0.235 0.754-0.581 1-1.037s0.371-1.013 0.371-1.667c0-0.976-0.259-1.723-0.778-2.242-0.506-0.531-1.13-0.797-1.871-0.797s-1.364 0.265-1.871 0.797c-0.493 0.519-0.741 1.266-0.741 2.242s0.241 1.729 0.723 2.26c0.494 0.519 1.112 0.778 1.853 0.778zM91.742 22.904c-0.989 0-1.878-0.216-2.668-0.648-0.789-0.447-1.425-1.082-1.859-1.847l-0.013-0.024c-0.445-0.803-0.667-1.729-0.667-2.779s0.228-1.976 0.685-2.779c0.457-0.787 1.105-1.417 1.883-1.84l0.025-0.013c0.803-0.445 1.698-0.667 2.686-0.667s1.883 0.222 2.686 0.667c0.799 0.433 1.443 1.064 1.877 1.829l0.012 0.023c0.469 0.803 0.704 1.729 0.704 2.779s-0.241 1.976-0.723 2.779c-0.464 0.793-1.118 1.429-1.901 1.858l-0.026 0.013c-0.803 0.432-1.704 0.648-2.705 0.648zM91.742 20.643c0.469 0 0.908-0.111 1.315-0.333 0.419-0.235 0.753-0.581 1-1.037s0.371-1.013 0.371-1.667c0-0.976-0.259-1.723-0.778-2.242-0.507-0.531-1.13-0.797-1.871-0.797s-1.365 0.265-1.871 0.797c-0.494 0.519-0.741 1.266-0.741 2.242s0.241 1.729 0.723 2.26c0.493 0.519 1.112 0.778 1.853 0.778zM101.592 9.027v13.709h-2.594v-13.709h2.594zM108.083 22.904c-0.84 0-1.593-0.148-2.26-0.445-0.667-0.309-1.198-0.723-1.593-1.241-0.362-0.476-0.592-1.069-0.629-1.715l-0-0.008h2.612c0.050 0.396 0.241 0.723 0.574 0.982 0.346 0.259 0.772 0.389 1.278 0.389 0.494 0 0.877-0.099 1.149-0.296 0.284-0.198 0.426-0.451 0.426-0.76 0-0.333-0.173-0.581-0.519-0.741-0.333-0.173-0.871-0.358-1.612-0.556-0.765-0.185-1.395-0.376-1.89-0.574-0.5-0.209-0.921-0.518-1.256-0.904l-0.004-0.004c-0.346-0.408-0.519-0.957-0.519-1.649 0-0.568 0.161-1.086 0.482-1.556 0.333-0.469 0.803-0.84 1.408-1.112 0.617-0.272 1.34-0.408 2.168-0.408 1.223 0 2.199 0.309 2.927 0.926 0.728 0.605 1.13 1.427 1.204 2.464h-2.483c-0.037-0.408-0.21-0.728-0.519-0.963-0.296-0.247-0.698-0.371-1.204-0.371-0.469 0-0.834 0.087-1.093 0.259-0.225 0.152-0.371 0.406-0.371 0.694 0 0.010 0 0.020 0.001 0.030l-0-0.001c0 0.345 0.173 0.611 0.519 0.797 0.346 0.173 0.883 0.352 1.612 0.537 0.741 0.185 1.352 0.376 1.834 0.574 0.498 0.209 0.915 0.525 1.237 0.921l0.005 0.006c0.358 0.408 0.543 0.952 0.556 1.63 0 0.593-0.167 1.124-0.5 1.593-0.321 0.469-0.791 0.84-1.408 1.112-0.605 0.259-1.315 0.389-2.131 0.389zM115.399 22.867c-0.469 0-0.858-0.142-1.167-0.426-0.275-0.27-0.445-0.645-0.445-1.060 0-0.012 0-0.023 0-0.035l-0 0.002c0-0.432 0.148-0.791 0.445-1.075 0.309-0.296 0.698-0.445 1.167-0.445 0.457 0 0.834 0.148 1.13 0.445 0.296 0.284 0.445 0.643 0.445 1.075s-0.148 0.797-0.445 1.093c-0.296 0.284-0.673 0.426-1.13 0.426z"></path>
</symbol>
<symbol id="icon-search" viewBox="0 0 33 32">
<path fill="none"  stroke-linejoin="round" stroke-linecap="round" stroke-miterlimit="4" stroke-width="2.6667" d="M14.667 25.333c5.891 0 10.667-4.776 10.667-10.667s-4.776-10.667-10.667-10.667v0c-5.891 0-10.667 4.776-10.667 10.667s4.776 10.667 10.667 10.667v0zM28 28l-5.8-5.8"></path>
</symbol>
<symbol id="icon-white-logo" viewBox="0 0 127 32">
<path d="M10.632 9.15c-0.322 0-0.635 0.039-0.935 0.114 0.201-1.772 0.899-3.351 1.948-4.631l-0.012 0.016c4.192 0.518 7.406 4.057 7.406 8.347 0 0 0 0.001 0 0.001v-0 6.134c-0.152 0.009-0.33 0.015-0.509 0.015-3.319 0-6.213-1.819-7.739-4.515l-0.023-0.044h3.712v-1.59c-0.001-2.124-1.722-3.845-3.846-3.846h-0z"></path>
<path d="M0.248 13.527c0.001-5.164 4.187-9.35 9.351-9.35 0.212 0 0.422 0.007 0.63 0.021l-0.028-0.002c-1.573 1.732-2.536 4.042-2.536 6.578 0 0.203 0.006 0.405 0.018 0.605l-0.001-0.027c-0.604 0.533-0.983 1.309-0.983 2.174 0 0.001 0 0.002 0 0.003v-0 0.645h1.566c1.379 3.762 4.994 6.448 9.235 6.448 0.494 0 0.977-0.036 1.452-0.107v3.976h-6.448v-3.869h-5.807v3.869h-6.447v-10.963z"></path>
<path d="M40.462 17.321c0-1.195 0.235-2.255 0.704-3.179 0.484-0.924 1.131-1.636 1.941-2.133 0.824-0.497 1.743-0.747 2.752-0.747 0.882 0 1.649 0.177 2.304 0.533 0.669 0.356 1.202 0.804 1.6 1.344v-1.685h3.008v11.819h-3.008v-1.728c-0.384 0.555-0.917 1.017-1.6 1.387-0.669 0.356-1.444 0.533-2.325 0.533-0.014 0-0.030 0-0.046 0-0.995 0-1.923-0.286-2.706-0.781l0.021 0.012c-0.811-0.512-1.457-1.231-1.941-2.155-0.469-0.939-0.704-2.012-0.704-3.221zM49.763 17.363c0-0.725-0.143-1.344-0.427-1.856-0.266-0.505-0.659-0.912-1.138-1.187l-0.014-0.008c-0.442-0.268-0.976-0.427-1.548-0.427-0.003 0-0.007 0-0.010 0h0.001c-0.555 0-1.067 0.136-1.536 0.405s-0.853 0.669-1.152 1.195c-0.284 0.512-0.427 1.124-0.427 1.835s0.143 1.337 0.427 1.877c0.299 0.527 0.683 0.931 1.152 1.216 0.484 0.284 0.996 0.427 1.536 0.427 0.004 0 0.009 0 0.014 0 0.567 0 1.1-0.15 1.559-0.413l-0.015 0.008c0.487-0.291 0.878-0.695 1.144-1.179l0.008-0.016c0.284-0.527 0.427-1.152 0.427-1.877zM62.237 11.283c1.408 0 2.546 0.448 3.413 1.344 0.868 0.882 1.301 2.119 1.301 3.712v6.933h-2.987v-6.528c0-0.939-0.235-1.657-0.704-2.155-0.469-0.512-1.109-0.768-1.92-0.768-0.824 0-1.479 0.256-1.963 0.768-0.469 0.497-0.704 1.216-0.704 2.155v6.528h-2.987v-11.819h2.987v1.472c0.398-0.512 0.903-0.911 1.515-1.195 0.586-0.283 1.275-0.448 2.002-0.448 0.016 0 0.033 0 0.049 0l-0.002-0zM73.269 13.907v5.717c0 0.398 0.092 0.689 0.277 0.875 0.199 0.171 0.527 0.256 0.981 0.256h1.387v2.517h-1.877c-2.517 0-3.776-1.223-3.776-3.669v-5.696h-1.408v-2.453h1.408v-2.923h3.008v2.923h2.645v2.453h-2.644zM83.311 23.465c-1.137 0-2.161-0.249-3.072-0.747-0.908-0.515-1.64-1.246-2.14-2.127l-0.014-0.028c-0.512-0.924-0.768-1.991-0.768-3.2s0.264-2.276 0.789-3.2c0.526-0.906 1.273-1.632 2.168-2.119l0.029-0.015c0.925-0.512 1.956-0.768 3.093-0.768s2.169 0.256 3.093 0.768c0.921 0.498 1.661 1.225 2.162 2.107l0.014 0.027c0.541 0.924 0.811 1.991 0.811 3.2s-0.277 2.276-0.832 3.2c-0.534 0.913-1.287 1.646-2.189 2.14l-0.029 0.015c-0.924 0.497-1.963 0.747-3.115 0.747zM83.311 20.862c0.541 0 1.045-0.128 1.515-0.384 0.484-0.271 0.868-0.669 1.152-1.195s0.427-1.167 0.427-1.92c0-1.124-0.299-1.984-0.896-2.581-0.583-0.611-1.301-0.917-2.155-0.917s-1.571 0.305-2.155 0.917c-0.568 0.597-0.853 1.457-0.853 2.581s0.277 1.991 0.832 2.603c0.569 0.597 1.28 0.896 2.133 0.896zM96.915 23.465c-1.138 0-2.162-0.249-3.072-0.747-0.908-0.515-1.64-1.246-2.14-2.127l-0.014-0.028c-0.512-0.924-0.768-1.991-0.768-3.2s0.263-2.276 0.789-3.2c0.526-0.906 1.273-1.632 2.168-2.119l0.029-0.015c0.924-0.512 1.955-0.768 3.093-0.768s2.168 0.256 3.093 0.768c0.92 0.498 1.661 1.225 2.162 2.107l0.014 0.027c0.54 0.924 0.811 1.991 0.811 3.2s-0.277 2.276-0.832 3.2c-0.534 0.913-1.287 1.645-2.189 2.14l-0.029 0.015c-0.925 0.497-1.963 0.747-3.115 0.747zM96.915 20.862c0.54 0 1.045-0.128 1.515-0.384 0.483-0.271 0.867-0.669 1.152-1.195s0.427-1.167 0.427-1.92c0-1.124-0.299-1.984-0.896-2.581-0.584-0.611-1.301-0.917-2.155-0.917s-1.572 0.305-2.155 0.917c-0.569 0.597-0.853 1.457-0.853 2.581s0.277 1.991 0.832 2.603c0.568 0.597 1.28 0.896 2.133 0.896zM108.257 7.486v15.787h-2.987v-15.787h2.987zM115.73 23.465c-0.967 0-1.835-0.171-2.603-0.512-0.768-0.356-1.38-0.832-1.835-1.429-0.416-0.548-0.682-1.231-0.725-1.974l-0-0.010h3.008c0.057 0.456 0.277 0.832 0.661 1.131 0.399 0.299 0.889 0.448 1.472 0.448 0.569 0 1.009-0.113 1.323-0.341 0.327-0.228 0.491-0.519 0.491-0.875 0-0.384-0.199-0.669-0.597-0.853-0.384-0.199-1.003-0.412-1.856-0.64-0.881-0.213-1.607-0.433-2.176-0.661-0.576-0.241-1.061-0.596-1.447-1.041l-0.004-0.005c-0.399-0.469-0.597-1.103-0.597-1.899 0-0.655 0.185-1.251 0.555-1.792 0.384-0.54 0.924-0.967 1.621-1.28 0.711-0.313 1.543-0.469 2.496-0.469 1.408 0 2.532 0.356 3.371 1.067 0.839 0.697 1.301 1.643 1.387 2.837h-2.859c-0.043-0.469-0.241-0.839-0.597-1.109-0.341-0.284-0.804-0.427-1.387-0.427-0.54 0-0.96 0.1-1.259 0.299-0.259 0.175-0.427 0.467-0.427 0.799 0 0.012 0 0.023 0.001 0.035l-0-0.002c0 0.398 0.199 0.704 0.597 0.917 0.399 0.199 1.017 0.405 1.856 0.619 0.853 0.213 1.557 0.433 2.112 0.661 0.573 0.24 1.053 0.604 1.424 1.060l0.005 0.007c0.412 0.469 0.625 1.096 0.64 1.877 0 0.683-0.192 1.295-0.576 1.835-0.369 0.54-0.911 0.967-1.621 1.28-0.697 0.299-1.515 0.448-2.453 0.448zM124.155 23.422c-0.54 0-0.988-0.164-1.344-0.491-0.316-0.311-0.512-0.743-0.512-1.221 0-0.013 0-0.027 0-0.040l-0 0.002c0-0.497 0.171-0.911 0.512-1.237 0.356-0.341 0.804-0.512 1.344-0.512 0.527 0 0.96 0.171 1.301 0.512 0.341 0.327 0.512 0.74 0.512 1.237s-0.171 0.917-0.512 1.259c-0.341 0.327-0.775 0.491-1.301 0.491z"></path>
</symbol>
</defs>
</svg>
